<?xml version="1.0" standalone="no"?>
<!DOCTYPE svg PUBLIC "-//W3C//DTD SVG 20010904//EN"
 "http://www.w3.org/TR/2001/REC-SVG-20010904/DTD/svg10.dtd">
<svg version="1.0" xmlns="http://www.w3.org/2000/svg"
 width="125.000000pt" height="46.000000pt" viewBox="0 0 125.000000 46.000000"
 preserveAspectRatio="xMidYMid meet">
<metadata>
Created by potrace 1.15, written by Peter Selinger 2001-2017
</metadata>
<g transform="translate(0.000000,46.000000) scale(0.100000,-0.100000)"
fill="#000000" stroke="none">
<path d="M580 444 c-307 -44 -532 -188 -575 -367 -11 -42 10 -32 23 11 41 136
198 252 421 308 79 20 231 45 231 38 0 -9 -187 -126 -205 -129 -27 -2 -92 -55
-180 -144 -37 -38 -68 -61 -82 -61 -25 0 -43 -22 -24 -28 8 -3 3 -14 -15 -33
-47 -49 -17 -46 34 3 32 32 59 49 85 53 42 8 43 6 21 -37 -11 -21 -13 -33 -5
-41 7 -7 33 8 85 51 41 34 77 62 80 62 3 0 6 -7 6 -15 0 -20 4 -19 48 9 27 18
63 28 132 36 281 35 590 93 590 111 0 13 -15 12 -136 -15 -60 -13 -176 -34
-259 -45 -82 -12 -162 -24 -176 -27 -24 -5 -26 -3 -22 20 3 15 2 26 -1 26 -3
0 -31 -16 -61 -37 -62 -40 -78 -39 -46 5 42 60 13 58 -50 -4 -29 -28 -60 -49
-83 -54 -20 -4 -36 -6 -36 -3 0 2 20 33 45 68 35 49 65 76 128 116 95 60 167
116 167 130 0 11 -21 10 -140 -7z"/>
</g>
</svg>
